<?xml version="1.0" encoding="UTF-8"?>
<svg width="56px" height="56px" viewBox="0 0 56 56" version="1.1" xmlns="http://www.w3.org/2000/svg" xmlns:xlink="http://www.w3.org/1999/xlink">
    <title>编组</title>
    <g id="数据浏览view" stroke="none" stroke-width="1" fill="none" fill-rule="evenodd">
        <g id="数据浏览-切片模式-未截图" transform="translate(-1080.000000, -740.000000)" fill-rule="nonzero">
            <g id="编组" transform="translate(1080.000000, 740.000000)">
                <path d="M28,13.6352283 C35.9534757,13.6352283 42.4010417,20.0655119 42.4010417,27.9976687 C42.4010417,35.9298255 35.9534757,42.3601091 28,42.3601091 C20.0465243,42.3601091 13.5989583,35.9298255 13.5989583,27.9976687 C13.5989583,20.0655119 20.0465243,13.6352283 28,13.6352283 M28,13.4534252 C19.9458474,13.4534252 13.4166667,19.9651048 13.4166667,27.9976687 C13.4166667,36.0302326 19.9458474,42.5419122 28,42.5419122 C36.0541526,42.5419122 42.5833333,36.0302326 42.5833333,27.9976687 C42.5833333,19.9651048 36.0541526,13.4534252 28,13.4534252 Z M27.9088542,6.18130348 L28.0911458,6.18130348 L28.0911458,7.99933391 L27.9088542,7.99933391 L27.9088542,6.18130348 Z M22.3526042,6.95578444 L22.53125,6.90851565 L23.0052083,8.67200517 L22.8283854,8.71927397 L22.3526042,6.95578444 Z M16.9768229,9.14105703 L17.1354167,9.0501555 L18.046875,10.6245699 L17.8882813,10.7154714 L16.9768229,9.14105703 Z M12.4705729,12.6389476 L12.5981771,12.5116855 L13.8888021,13.7952149 L13.7611979,13.9224771 L12.4705729,12.6389476 Z M9.00338542,17.1767515 L9.09453125,17.0185829 L10.6731771,17.9275981 L10.5820313,18.0857668 L9.00338542,17.1767515 Z M6.846875,22.4435857 L6.89427083,22.2690548 L8.65520833,22.7399247 L8.6078125,22.9144556 L6.846875,22.4435857 Z M6.125,28.0885702 L6.125,27.9067672 L7.94791667,27.9067672 L7.94791667,28.0885702 L6.125,28.0885702 Z M6.90520833,33.7281006 L6.8578125,33.5517517 L8.61875,33.0826998 L8.66614583,33.2572307 L6.90520833,33.7281006 Z M9.1109375,38.9931168 L9.01979167,38.8349481 L10.5984375,37.9259329 L10.6895833,38.0841016 L9.1109375,38.9931168 Z M12.5963542,43.489106 L12.4669271,43.3618439 L13.7557292,42.0764964 L13.8833333,42.2037585 L12.5963542,43.489106 Z M17.1481771,46.9433639 L16.9895833,46.8524623 L17.9010417,45.278048 L18.0596354,45.3689495 L17.1481771,46.9433639 Z M22.4401042,49.0868217 L22.2632812,49.039553 L22.7335938,47.2833356 L22.9104167,47.3306043 L22.4401042,49.0868217 Z M28.0911458,49.8140339 L27.9088542,49.8140339 L27.9088542,47.9960035 L28.0911458,47.9960035 L28.0911458,49.8140339 Z M33.7385417,49.043189 L33.5617187,49.0904578 L33.0895833,47.3342404 L33.2664062,47.2869716 L33.7385417,49.043189 Z M39.0231771,46.8524623 L38.8664063,46.9433639 L37.9549479,45.3689495 L38.1117188,45.278048 L39.0231771,46.8524623 Z M43.5385417,43.3563898 L43.4109375,43.4836519 L42.1203125,42.2001225 L42.2479167,42.0728603 L43.5385417,43.3563898 Z M46.8270833,39.009479 L46.7359375,39.1676477 L45.15,38.2586325 L45.2411458,38.1004638 L46.8270833,39.009479 Z M49.1385417,33.5517517 L49.0911458,33.7281006 L47.3302083,33.2554127 L47.3776042,33.0808818 L49.1385417,33.5517517 Z M49.875,27.9067672 L49.875,28.0885702 L48.0520833,28.0885702 L48.0520833,27.9067672 L49.875,27.9067672 Z M49.109375,22.2672368 L49.1567708,22.4435857 L47.3958333,22.9144556 L47.3484375,22.7381066 L49.109375,22.2672368 Z M46.9054688,17.0058567 L46.9966146,17.1622073 L45.4179688,18.0712225 L45.3268229,17.9148719 L46.9054688,17.0058567 Z M43.3963542,12.5062314 L43.5239583,12.6334935 L42.2351562,13.918841 L42.1075521,13.7915789 L43.3963542,12.5062314 Z M39.0085938,9.09015217 L39.1671875,9.1810537 L38.2557292,10.7627402 L38.0971354,10.6718387 L39.0085938,9.09015217 Z M33.5763021,6.90851565 L33.7513021,6.95578444 L33.2809896,8.71200184 L33.1041667,8.66473305 L33.5763021,6.90851565 Z" id="形状" fill="#F9F9F9"></path>
                <path d="M30.7161458,4.12692909 L29.8229167,4.12692909 L28,1.45442435 C27.9244433,1.34453923 27.8574083,1.22906177 27.7994792,1.10899857 C27.8109332,1.32701268 27.8109332,1.54547541 27.7994792,1.76348952 L27.7994792,4.12692909 L26.9791667,4.12692909 L26.9791667,0 L28,0 L29.6953125,2.54524261 L29.8229167,2.9088487 C29.8071067,2.7213164 29.8071067,2.53279156 29.8229167,2.34525926 L29.8229167,0 L30.6614583,0 L30.7161458,4.12692909 Z" id="路径" fill="#F9F9F9"></path>
                <path d="M5.21354167,25.4524261 L4.30208333,29.5793552 L3.3359375,29.5793552 L2.69791667,26.8886701 C2.68010924,26.7376881 2.68010924,26.5851446 2.69791667,26.4341625 C2.71010852,26.5854211 2.71010852,26.7374116 2.69791667,26.8886701 L2.04166667,29.5793552 L1.13020833,29.5793552 L0,25.4524261 L0.875,25.4524261 L1.421875,28.2340127 C1.44250071,28.3909039 1.44250071,28.5498093 1.421875,28.7067006 L1.421875,28.2340127 L2.11458333,25.4524261 L2.97135417,25.4524261 L3.59114583,28.2703733 C3.61371608,28.4149448 3.61371608,28.5621291 3.59114583,28.7067006 C3.57208236,28.5557945 3.57208236,28.403099 3.59114583,28.252193 L4.13802083,25.4524261 L5.21354167,25.4524261 Z" id="路径" fill="#F9F9F9"></path>
                <path d="M27.5260417,54.8863388 C27.8359236,55.1637072 28.2399593,55.3131897 28.65625,55.3044858 C28.8477005,55.3245425 29.0403453,55.2797125 29.203125,55.1772237 C29.316944,55.1161862 29.3872245,54.9970295 29.3854167,54.8681585 C29.3765776,54.7454485 29.3249888,54.6296848 29.2395833,54.540913 C29.0129902,54.369379 28.7607838,54.2344115 28.4921875,54.1409464 C27.8359375,53.8743019 27.5078125,53.4743352 27.5078125,52.9410463 C27.4957511,52.5899586 27.6597937,52.2559361 27.9453125,52.0502114 C28.2945297,51.83331 28.7008696,51.7256653 29.1119792,51.7411462 C29.4578357,51.7353575 29.8024154,51.7844512 30.1328125,51.8865886 L30.1328125,52.7228826 C29.8505293,52.5247831 29.511707,52.4227713 29.1666667,52.4319977 C28.981572,52.4197794 28.7971455,52.4641768 28.6380208,52.5592599 C28.5199645,52.618433 28.4432482,52.7366767 28.4375,52.868325 C28.4439696,52.9863386 28.4962787,53.0971974 28.5833333,53.1773902 C28.7850864,53.3221279 29.0059247,53.438369 29.2395833,53.522816 C29.5600303,53.641557 29.8474862,53.834758 30.078125,54.0864054 C30.2397938,54.2867727 30.3238957,54.5384022 30.3151042,54.7954373 C30.3313728,55.143203 30.1744768,55.4765636 29.8958333,55.6862722 C29.5387516,55.9161026 29.1166861,56.024525 28.6927083,55.9953374 C28.2924479,56.0092895 27.8940467,55.9347895 27.5260417,55.7771737 L27.5260417,54.8863388 Z" id="路径" fill="#F9F9F9"></path>
                <polygon id="路径" fill="#F9F9F9" points="56 29.5793552 53.1380208 29.5793552 53.1380208 25.4524261 55.890625 25.4524261 55.890625 26.1796383 54.1588542 26.1796383 54.1588542 27.1613747 55.7630208 27.1613747 55.7630208 27.8704066 54.1588542 27.8704066 54.1588542 28.8703233 55.9817708 28.8703233"></polygon>
                <path d="M25.5208333,26.8523095 C26.0614712,25.6934328 27.3366301,25.0645371 28.5882298,25.3395001 C29.8398295,25.6144631 30.7320115,26.7195004 30.734375,27.9976687 L34.9635417,27.9976687 L28,7.99933391 L21.0364583,27.9976687 L25.265625,27.9976687 C25.262711,27.6015427 25.3499717,27.2099222 25.5208333,26.8523095 L25.5208333,26.8523095 Z" id="路径" fill="#E8682B"></path>
                <path d="M30.734375,27.9976687 C30.737289,28.3937947 30.6500283,28.7854152 30.4791667,29.1430279 C29.9385288,30.3019046 28.6633699,30.9308003 27.4117702,30.6558373 C26.1601705,30.3808743 25.2679885,29.275837 25.265625,27.9976687 L21.0364583,27.9976687 L28,47.9960035 L34.9635417,27.9976687 L30.734375,27.9976687 Z" id="路径" fill="#F9F9F9"></path>
            </g>
        </g>
    </g>
</svg>